<svg xmlns="http://www.w3.org/2000/svg" viewBox="0 0 32 32" fill="none">
    <!-- Background Circle -->
    <circle cx="16" cy="16" r="16" fill="#2563eb"/>
    <!-- Highlight -->
    <ellipse cx="11" cy="10" rx="5" ry="4" fill="#60a5fa" opacity="0.4"/>
    <!-- Wrench Icon -->
    <path
        d="M22 10C20.7 8.7 18.7 8.3 17 9L13.5 12.5L11.7 10.7C11.4 10.4 10.7 10.4 10.4 10.7L9.7 11.4C9.4 11.7 9.4 12.4 9.7 12.7L11.5 14.5L9 17C8.3 18.7 8.7 20.7 10 22C11.3 23.3 13.3 23.7 15 23L23 15C23.7 13.3 23.3 11.3 22 10Z"
        fill="white"
    />
    <!-- Inner Circle -->
    <circle cx="12" cy="20" r="2" fill="#1d4ed8"/>
    <!-- Accent dot -->
    <circle cx="20" cy="12" r="1.5" fill="#f97316"/>
</svg>
